<?xml version="1.0" encoding="UTF-8" standalone="no"?>
<!-- Created with Inkscape (http://www.inkscape.org/) -->

<svg
   width="506.93042mm"
   height="153.11183mm"
   viewBox="0 0 506.93043 153.11183"
   version="1.1"
   id="svg5"
   inkscape:version="1.1.1 (3bf5ae0d25, 2021-09-20)"
   sodipodi:docname="mini-dragon-bubble.svg"
   xmlns:inkscape="http://www.inkscape.org/namespaces/inkscape"
   xmlns:sodipodi="http://sodipodi.sourceforge.net/DTD/sodipodi-0.dtd"
   xmlns="http://www.w3.org/2000/svg"
   xmlns:svg="http://www.w3.org/2000/svg">
  <sodipodi:namedview
     id="namedview7"
     pagecolor="#ffffff"
     bordercolor="#666666"
     borderopacity="1.0"
     inkscape:pageshadow="2"
     inkscape:pageopacity="0.0"
     inkscape:pagecheckerboard="0"
     inkscape:document-units="mm"
     showgrid="false"
     inkscape:zoom="0.39725685"
     inkscape:cx="753.9203"
     inkscape:cy="152.29442"
     inkscape:window-width="1920"
     inkscape:window-height="1017"
     inkscape:window-x="-8"
     inkscape:window-y="-8"
     inkscape:window-maximized="1"
     inkscape:current-layer="layer1-3" />
  <defs
     id="defs2">
    <inkscape:path-effect
       effect="bspline"
       id="path-effect4382"
       is_visible="true"
       lpeversion="1"
       weight="33.333333"
       steps="2"
       helper_size="0"
       apply_no_weight="true"
       apply_with_weight="true"
       only_selected="false" />
    <inkscape:path-effect
       effect="bspline"
       id="path-effect19571"
       is_visible="true"
       lpeversion="1"
       weight="33.333333"
       steps="2"
       helper_size="0"
       apply_no_weight="true"
       apply_with_weight="true"
       only_selected="false" />
  </defs>
  <g
     inkscape:label="Ebene 1"
     inkscape:groupmode="layer"
     id="layer1"
     transform="translate(-21.092955,-75.513792)">
    <g
       inkscape:label="Ebene 1"
       id="layer1-3"
       transform="translate(-31.552735,-30.699519)">
      <path
         id="rect4345"
         style="opacity:1;fill:none;fill-opacity:1;fill-rule:evenodd;stroke:#000000;stroke-width:6.02835;stroke-linecap:round;stroke-linejoin:round;stroke-miterlimit:4;stroke-dasharray:none;stroke-dashoffset:0;stroke-opacity:1"
         d="m 456.18359,12.005859 c -19.93131,0 -35.97656,16.04525 -35.97656,35.976563 V 254.4531 l -67.46576,-34.33678 67.46576,82.91956 v 49.17896 c 0,19.93132 16.04525,35.97657 35.97656,35.97657 H 1876.9648 c 19.9314,0 35.9786,-16.04525 35.9786,-35.97657 V 47.982422 c 0,-19.931313 -16.0472,-35.976563 -35.9786,-35.976563 z"
         transform="matrix(0.26458333,0,0,0.26458333,52.64569,106.21331)"
         sodipodi:nodetypes="sscccsssssss" />
      <g
         inkscape:label="Ebene 1"
         id="layer1-1"
         transform="translate(5.8118151,68.837583)">
        <path
           style="fill:#338000;fill-opacity:1;fill-rule:evenodd;stroke-width:0.137328;stroke-linecap:round"
           d="m 281.71504,309.88516 c -2.43937,0.0957 -4.93174,0.23968 -7.27771,0.94754 -1.82633,1.11889 -2.58025,3.29709 -3.41176,5.16036 -1.71463,4.26554 -1.08205,8.99965 -0.36193,13.40946 0.30002,1.2203 0.41898,2.58271 1.09373,3.65532 0.63076,0.36722 1.55412,-0.11748 2.00039,0.64381 1.18225,1.44165 0.98659,3.45884 1.84853,5.06356 1.41418,3.15902 3.26368,6.25376 5.93929,8.50174 0.88748,0.73135 2.45274,1.48719 3.39813,0.46979 0.89027,-1.54823 0.71167,-3.45245 0.9694,-5.16831 0.16664,-0.78514 0.0199,-1.81319 0.54814,-2.44038 1.10816,0.89482 1.57499,2.37761 2.35625,3.53715 0.83846,1.38755 1.68219,3.31252 3.47659,3.59465 1.54744,-0.007 2.21656,-1.77764 2.54172,-3.0399 0.8693,-3.83092 0.43875,-7.80772 -0.32133,-11.61743 -0.19214,-0.42835 0.33471,-0.67706 0.55382,-0.25576 1.21081,0.99781 1.01825,2.64844 1.48007,3.9917 0.39156,1.05167 1.13083,2.0265 2.10428,2.58742 0.69943,-0.16979 0.65194,-1.19917 0.96451,-1.74437 0.51383,-1.67031 1.39583,-3.48981 0.59305,-5.22336 -1.5063,-3.60148 -3.59891,-6.9148 -5.26093,-10.44344 -1.80725,-3.39572 -3.35552,-7.08102 -6.16063,-9.80118 -1.7704,-1.60485 -4.34263,-1.716 -6.60977,-1.82667 -0.15461,-0.002 -0.30922,-0.002 -0.46384,-0.002 z"
           id="path17426"
           transform="matrix(0.26458333,0,0,0.26458333,46.739885,37.275758)" />
        <path
           style="fill:#225500;fill-opacity:1;fill-rule:evenodd;stroke-width:0.0818279;stroke-linecap:round"
           d="m 273.29763,311.30252 c -0.58457,0.27111 -1.03108,0.81952 -1.69735,0.94805 -2.67873,0.72888 -5.44509,1.01499 -8.17816,1.4828 -0.97702,0.18189 -1.99598,0.25114 -2.94803,0.50596 -0.36877,0.32168 -0.15169,0.95071 -0.27303,1.39207 -0.1931,3.37429 0.5404,6.71292 0.77203,10.06155 0.38075,3.75499 0.46745,7.53759 0.94189,11.28446 0.0902,0.73217 0.3558,1.78189 1.26739,1.81084 1.44159,-0.1306 2.77335,-0.79222 4.178,-1.11059 0.99213,-0.32881 2.06317,-0.36463 3.04085,-0.72156 0.75504,-0.69527 0.53222,-1.85314 1.02095,-2.69986 0.0972,-0.49016 0.8246,-0.75238 0.64376,-1.29209 -0.55527,-0.66606 -0.61483,-1.61491 -0.85625,-2.42363 -0.69277,-3.23712 -1.13721,-6.54853 -0.91156,-9.83554 0.0731,-2.49893 1.01088,-4.92119 2.1451,-7.13086 0.31804,-0.68082 0.85762,-1.22831 1.19895,-1.88967 0.062,-0.20365 -0.14524,-0.40852 -0.34454,-0.38193 z"
           id="path27264"
           transform="matrix(0.26458333,0,0,0.26458333,46.739885,37.275758)" />
        <path
           style="fill:#338000;fill-opacity:1;fill-rule:evenodd;stroke-width:0.354358;stroke-linecap:round"
           d="m 225.51168,28.413557 c -1.24233,-0.249829 -3.89956,0.633506 -2.94568,1.752762 2.74211,4.343519 6.90025,9.112492 9.97674,13.223484 1.61647,1.090798 3.73782,-0.314591 5.53381,-0.176109 9.17855,-0.979872 18.45691,-2.356894 27.67455,-1.578908 4.02037,1.165214 5.75021,5.658326 6.79813,9.331038 1.31841,5.956767 0.45296,12.132478 0.19299,18.150396 -0.64425,5.880282 -2.59291,11.957672 -6.41612,16.598364 -1.00686,1.063379 -1.90532,-1.187093 -2.79844,-1.558859 -7.06781,-7.010747 -14.23479,-14.05216 -22.8157,-19.226042 -15.16169,-9.898803 -32.49731,-17.36536 -50.68591,-18.615791 -9.65809,-0.130682 -19.65186,-0.33082 -28.91091,2.973092 -10.16441,3.31069 -20.22029,7.523376 -28.94056,13.787662 -9.69023,7.752129 -17.18261,17.880583 -23.93703,28.192854 -7.33093,12.11303 -14.198,24.65288 -18.867901,38.05663 -1.222826,4.0869 0.313023,8.3125 0.242841,12.47232 0.796405,13.06918 1.262275,26.35704 5.401715,38.904 6.881375,23.78453 22.017605,44.34683 39.823915,61.18541 12.06643,11.29479 27.70238,17.65853 42.98924,23.2982 15.76826,5.72379 32.1928,9.541 48.86659,11.37843 3.16693,0.53996 6.72806,0.54619 9.6423,1.65978 -7.37019,9.21771 -16.32821,17.13307 -23.21501,26.76963 -4.72554,6.59895 -9.76502,13.06773 -13.57444,20.25107 -0.31844,1.68626 1.02582,1.97856 2.10641,2.26641 5.34781,0.17434 11.9949,0.0111 17.08525,1.89699 1.334,0.66647 2.86816,-0.20015 2.84128,-1.73011 2.36749,-9.28787 7.39149,-17.62525 13.73122,-24.74479 6.15969,-7.26822 13.76096,-13.37172 22.80474,-16.53522 2.10105,-1.00285 4.4559,-0.9329 6.58576,-1.62636 2.18025,-2.37295 3.71878,-5.32419 6.07703,-7.58515 13.41062,-14.97116 30.62237,-25.74632 45.71175,-38.8619 0.65124,-0.72536 3.07081,-2.24656 1.38766,-3.13365 -0.91164,-0.23439 -2.732,-0.87818 -1.52502,-2.06706 2.89755,-3.66008 7.47697,-6.33294 8.91206,-10.96666 0.23438,-1.95497 2.68286,-3.91109 0.47099,-5.55877 -1.22733,-1.36832 -2.55409,-2.82981 -4.16561,-3.67265 -1.58842,2.51871 -3.80791,4.88581 -6.80032,5.75142 -6.10446,1.64474 -11.9436,-2.23638 -16.57232,-5.75508 -4.46387,-3.20659 -7.50725,-8.22962 -8.21193,-13.61963 -0.41516,-1.90783 -0.69993,-5.06442 -3.36708,-4.85933 -2.75516,-0.12175 -5.1178,1.49313 -7.65879,2.26189 1.84261,-6.49888 6.08863,-11.98336 9.76832,-17.51574 2.69614,-4.18969 6.44,-7.73474 11.18653,-9.45674 1.98443,-1.00498 4.27945,-1.15495 6.31164,-1.84614 3.36178,-3.26862 9.06811,-4.17659 13.13187,-1.73524 2.64841,2.43026 6.61775,1.98626 9.93804,2.52527 6.04248,0.29602 12.5697,0.89402 17.98803,-2.38383 7.08692,-3.2626 11.31281,-10.16355 15.15536,-16.60388 1.61238,-1.94935 -0.79672,-4.50336 -0.25051,-6.59743 1.44563,-2.10447 4.85183,-3.65519 3.80523,-6.70364 -1.36111,-3.41672 -5.5235,-4.2246 -8.49529,-5.72505 -10.51784,-4.48276 -22.18446,-3.45319 -33.24791,-5.12807 -3.41883,-1.48701 -5.74288,-4.76317 -8.00305,-7.61045 -3.87873,-5.60225 -4.16561,-12.81133 -3.28883,-19.299336 0.99628,-4.441072 3.40217,-8.886858 7.63169,-11.039909 1.78054,-1.834153 -0.52854,-4.345113 -1.05668,-6.244837 -2.66353,-5.434751 -4.8066,-11.955212 -10.62623,-14.837638 -2.38431,-1.53137 -5.5786,-2.573433 -7.50069,-4.363813 0.87507,-1.498522 3.74592,-0.606661 3.97076,-2.507273 -3.59218,-4.181194 -8.19161,-7.475755 -12.38986,-11.053826 -7.82571,-6.230356 -17.09753,-10.371443 -26.38257,-13.923827 -13.16515,-4.659933 -27.25537,-5.623037 -41.09405,-6.238364 z m -40.22476,69.134209 c 1.35017,0.09491 3.78855,2.06091 2.16154,3.305674 -2.99545,3.02663 -5.72728,6.32221 -7.56503,10.19829 -0.98801,1.66539 -2.01709,3.32261 -3.34157,4.74646 -1.9209,-3.79516 0.28904,-7.82754 1.68209,-11.39111 1.41665,-2.88804 3.40697,-6.725073 7.06297,-6.859314 z m 32.79451,30.667394 c 8.95999,-0.57865 17.30375,4.62827 22.77508,11.37976 4.86455,5.51961 7.52122,13.02583 6.69764,20.32262 -1.17603,10.41946 -4.27401,13.61836 -13.78451,19.90363 -3.29487,2.17751 -7.06869,1.92841 -10.49258,2.19131 -13.20327,-1.07996 -26.32586,-10.27082 -29.36155,-23.59725 -1.32808,-7.04383 -0.37602,-14.71565 4.21568,-20.50754 4.61048,-5.99007 12.28147,-10.18543 19.95024,-9.69253 z"
           id="path91855"
           transform="matrix(0.26458333,0,0,0.26458333,46.739885,37.275758)"
           sodipodi:nodetypes="ccccccccccccccccccccccccccccccccccccccccccccccccccccccccccccccccccccccsscccc" />
        <path
           style="fill:#338000;fill-opacity:1;fill-rule:evenodd;stroke-width:0.16511;stroke-linecap:round"
           d="m 183.71697,323.37191 c -7.43037,0.33257 -14.32216,5.71934 -16.45842,12.84722 -1.13197,3.51478 -1.45864,7.39539 -0.50511,10.98684 1.49684,4.59812 5.27323,8.32316 9.89779,9.74215 2.59868,0.78257 5.36566,1.36539 8.08586,1.072 2.39341,-0.45658 4.46002,-2.05167 6.89442,-2.28256 1.42898,0.40038 1.71824,2.18678 2.69415,3.14773 2.89302,3.55717 7.19786,5.89798 11.71823,6.55381 1.16425,0.0115 2.69917,0.38167 3.59755,-0.55221 0.20843,-1.36187 -0.55063,-2.75584 -0.67609,-4.0733 -0.21782,-1.18292 -0.48508,-2.52977 -0.58361,-3.61905 2.14146,2.02995 3.46001,4.71447 5.14087,7.091 0.9524,0.95732 2.14302,-0.30844 3.02175,-0.74506 1.70411,-1.12394 3.93072,-2.47146 3.77096,-4.82379 -0.16674,-2.05826 -0.76573,-4.13282 -0.41638,-6.18803 0.0143,-0.99613 0.21363,-0.67892 0.37747,0.0653 0.57105,1.72258 0.52746,3.64097 1.22319,5.30162 0.97289,0.83876 2.04407,-0.26037 2.53511,-1.08667 1.0554,-1.24385 1.74927,-2.7625 1.75625,-4.41254 0.14811,-3.34741 0.20091,-6.73259 -0.21873,-10.06128 -0.6107,-3.73325 -2.98728,-7.04858 -6.14358,-9.07219 -3.88737,-2.20793 -8.53153,-2.18996 -12.86445,-2.54321 -4.74218,-0.22274 -9.84772,-0.29309 -13.82708,-3.24535 -1.73667,-1.27203 -3.07537,-3.21697 -5.31782,-3.65975 -1.19923,-0.34965 -2.4557,-0.48046 -3.70233,-0.44265 z"
           id="path2922"
           transform="matrix(0.26458333,0,0,0.26458333,46.739885,37.275758)" />
        <path
           style="fill:#225500;fill-opacity:1;fill-rule:evenodd;stroke-width:0.33792;stroke-linecap:round"
           d="m 88.68738,131.21183 c -1.241888,1.75472 -1.187841,6.8165 -1.871422,8.85992 -2.659338,11.31491 -3.851595,22.94683 -3.397088,34.5657 0.43236,20.00214 4.225209,40.44363 14.715025,57.75392 6.892135,11.98137 17.017175,21.70919 27.758285,30.23513 13.87676,11.11981 30.20175,18.68609 46.85689,24.63036 10.73872,3.71399 22.04072,5.35893 33.21225,7.18704 -4.70036,0.63945 -9.55115,0.008 -14.24941,0.45682 -3.48239,2.97891 -4.10534,7.87508 -6.67488,11.51688 -2.91912,5.16795 -7.2346,9.32015 -11.93598,12.8573 -4.69104,4.31857 -8.81664,9.51814 -11.18439,15.47599 -1.33989,5.1178 -1.04296,10.63426 0.15088,15.75398 1.22411,5.43419 6.81748,8.65873 12.12527,8.59785 2.56123,-0.0425 8.16821,-0.0456 10.54428,-1.0826 0.20313,-1.50476 -5.00507,-0.48812 -5.90025,-0.97395 -6.92076,-1.14396 -12.5698,-7.54597 -12.21647,-14.67045 -0.0813,-9.07241 7.29088,-17.8866 16.46366,-18.47255 1.76477,-0.21243 4.47848,0.42649 6.20913,0.55471 0.96093,-0.29044 -1.09198,-2.42654 0.24711,-1.89862 3.34381,1.01596 6.43694,3.01961 9.86492,3.60705 3.63853,-6.87842 8.40335,-13.16365 12.88828,-19.52169 7.27537,-10.12092 16.35562,-18.70583 24.50596,-28.07414 0.34402,-1.61748 -2.20597,-1.26794 -3.18097,-1.56535 -13.69079,-1.47329 -27.47384,-3.40614 -40.68611,-7.32002 -16.42876,-4.86671 -32.88551,-10.79339 -47.38592,-19.92177 -7.45812,-4.69508 -13.8863,-10.99153 -19.77687,-17.54657 -8.60432,-9.57492 -16.47708,-20.02775 -22.40857,-31.45276 -4.860353,-9.36183 -8.253465,-19.54397 -10.514177,-29.84717 -2.637453,-12.0202 -2.140551,-24.52117 -3.439418,-36.7579 -0.07891,-0.315 -0.395114,-3.08182 -0.720015,-2.94711 z"
           id="path57712"
           transform="matrix(0.26458333,0,0,0.26458333,46.739885,37.275758)"
           sodipodi:nodetypes="cccccccccccccccccccccccaaaaacc" />
        <path
           style="fill:#225500;fill-opacity:1;fill-rule:evenodd;stroke-width:0.0681879;stroke-linecap:round"
           d="m 333.8892,200.35478 c -1.55813,0.0594 -2.88174,1.0294 -4.40504,1.26609 -3.59754,0.77005 -7.26274,0.95078 -10.93519,0.87721 -1.34796,0.0141 -2.68515,-0.11608 -4.03394,-0.0915 -0.62942,0.15826 -0.38746,0.93673 -0.47551,1.41125 -0.0998,2.27598 -0.25159,4.70005 0.7526,6.81556 0.59232,1.22729 1.79557,2.28631 3.22785,2.22362 0.93258,0.0549 1.88303,-0.46724 2.78951,-0.11433 0.50629,0.71453 1.42987,0.91121 2.0804,1.46389 1.44015,1.08525 2.63863,2.40777 3.44731,4.03169 0.21218,0.57481 0.51401,1.11236 0.97494,1.52393 0.64928,1.04189 0.59329,2.29744 0.70207,3.47581 0.0925,0.66737 -0.0218,1.39924 0.27513,2.01878 0.39606,0.51612 1.06051,0.0752 1.41794,-0.25864 1.70062,-1.61031 2.9879,-3.59568 4.29,-5.52712 1.61031,-2.54208 3.21751,-5.12725 4.26862,-7.96005 0.741,-2.11359 0.91864,-4.44465 0.4484,-6.63715 -0.41855,-1.84903 -1.57178,-3.72163 -3.46155,-4.32528 -0.43914,-0.14158 -0.90243,-0.2064 -1.36354,-0.1938 z"
           id="path1101"
           transform="matrix(0.26458333,0,0,0.26458333,46.739885,37.275758)" />
        <path
           style="fill:#225500;fill-opacity:1;fill-rule:evenodd;stroke-width:0.258484;stroke-linecap:round"
           d="m 362.44608,148.9141 c -2.42031,3.24934 -3.82938,7.26398 -6.63716,10.28074 -4.24452,4.76052 -10.0375,8.42795 -16.41902,9.39651 -5.41188,0.2916 -10.95602,-0.0121 -16.3213,-1.13005 -0.67106,-0.26298 -16.8474,0.0405 -18.15931,0.29708 -5.93378,1.17375 -11.70831,4.22954 -15.21788,9.28366 -3.59981,4.85031 -7.35047,10.88603 -10.14527,16.24824 -0.31683,1.32994 1.89588,0.81438 2.48895,0.40813 4.0053,-1.54517 8.33969,-2.83678 12.56699,-1.97715 6.37728,2.13662 12.66138,4.94793 19.29844,6.3053 8.60492,0.77638 17.51173,-0.32901 25.35247,-4.0994 5.84201,-2.52621 11.35745,-6.13613 15.08774,-11.39268 5.32744,-7.1645 8.72367,-15.93701 8.72628,-24.93035 0.0324,-2.81072 0.44901,-5.68604 0.0496,-8.46883 -0.11438,-0.31308 -0.43483,-0.19202 -0.67055,-0.2212 z"
           id="path7388"
           transform="matrix(0.26458333,0,0,0.26458333,46.739885,37.275758)"
           sodipodi:nodetypes="scccccccccccccss" />
        <path
           style="fill:#338000;fill-opacity:1;fill-rule:evenodd;stroke-width:0.427974;stroke-linecap:round"
           d="m 356.69188,420.21299 c -1.59723,0.82687 0.28076,3.03742 0.10947,4.36903 2.50558,11.18349 2.37955,22.87002 0.35502,34.12846 -2.41634,9.80394 -4.84796,19.84789 -9.98895,28.62747 -7.8029,12.04666 -18.51245,22.47404 -31.74487,28.30477 -11.26272,5.60606 -23.45854,9.12644 -36.02765,9.60338 -15.55282,1.14217 -31.56061,-1.60032 -45.23886,-9.38785 -1.93656,-0.81198 -3.76528,-2.33657 -5.85813,-2.59112 -1.02149,1.44596 1.46178,2.92155 2.1404,4.10783 5.49034,5.69851 12.15328,10.23215 19.01281,14.12238 12.99748,6.5723 27.00043,11.9768 41.74988,12.23568 8.12758,0.56996 16.28992,-0.5154 24.3575,-1.43005 10.56905,-1.98736 20.87968,-5.52264 30.56009,-10.16634 5.76318,-4.7789 12.53776,-9.33593 16.5309,-15.83933 7.59633,-12.37171 11.47921,-27.22919 12.64395,-41.67734 0.83445,-9.91022 -0.17862,-19.90804 -3.10595,-29.41812 -2.52956,-9.22043 -7.08828,-18.29599 -14.40838,-24.61199 -0.32158,-0.20574 -0.68998,-0.42079 -1.08723,-0.37686 z"
           id="path21333"
           transform="matrix(0.26458333,0,0,0.26458333,46.739885,37.275758)"
           sodipodi:nodetypes="cccccccccccccacccc" />
        <path
           style="fill:#338000;fill-opacity:1;fill-rule:evenodd;stroke-width:0.08593;stroke-linecap:round"
           d="m 205.06315,383.09079 c -6.05035,0.39216 -11.68549,2.93559 -16.98848,5.70164 -3.48333,1.7693 -6.391,4.45741 -9.11132,7.21876 -1.81647,1.94297 -3.70647,3.83676 -5.30613,5.96677 -1.08946,1.52454 -1.47092,3.43582 -1.40869,5.2824 -0.12554,5.9943 -0.0336,12.06696 1.44117,17.91396 0.84378,3.5153 2.14584,6.95692 4.23755,9.92904 3.61909,5.29252 8.98456,9.29983 14.97893,11.52329 3.34653,1.43002 6.90798,2.27038 10.50418,2.76969 4.7062,0.73023 9.47204,1.04675 14.11636,2.03101 0.66392,0.0707 0.90097,0.88343 1.59433,0.87053 1.48849,0.12735 2.6708,1.17327 3.90856,1.90423 3.99513,2.64007 8.18984,5.21424 12.90728,6.30475 1.21644,0.27437 2.52696,0.32451 3.7306,-0.0155 0.75142,-0.36741 0.43841,-1.36876 0.12007,-1.93875 -0.60898,-1.25051 -1.6448,-2.35398 -1.83572,-3.76932 -0.12478,-0.44554 0.26915,-0.19574 0.49201,-0.12487 2.46405,0.9711 4.88964,2.17837 7.56155,2.45297 1.88143,0.21025 3.82505,0.46329 5.69528,0.0531 0.5853,-0.11329 0.66641,-0.85573 0.24707,-1.21156 -1.68578,-2.12505 -3.89652,-3.81404 -5.35886,-6.11677 -0.14043,-0.23137 -0.29724,-0.55737 0.0595,-0.29556 2.37199,1.40042 4.73117,3.17592 7.5381,3.63788 1.00164,0.21046 2.31866,-0.22584 2.49737,-1.35704 0.31924,-2.14069 -0.57687,-4.22559 -1.40357,-6.15052 -1.39719,-3.11579 -3.3069,-6.02386 -5.83222,-8.34273 -2.55158,-2.50687 -5.61591,-4.45327 -8.92494,-5.79864 -0.92913,-0.45998 -2.08912,-0.91985 -2.33826,-2.05492 -0.56702,-2.32302 -0.52982,-4.74304 -0.9228,-7.09666 -0.87869,-6.32322 -3.23498,-12.4749 -7.09565,-17.58376 -3.78539,-5.1176 -8.78825,-9.14012 -13.65006,-13.18009 -3.41662,-2.77341 -6.86186,-5.51536 -10.32816,-8.22444 -0.33168,-0.21856 -0.73059,-0.31138 -1.12506,-0.29894 z"
           id="path17895"
           transform="matrix(0.26458333,0,0,0.26458333,46.739885,37.275758)" />
        <path
           style="fill:#225500;fill-opacity:1;fill-rule:evenodd;stroke-width:0.254601;stroke-linecap:round"
           d="m 190.36968,360.3936 c -4.53778,0.88858 -8.76236,3.31926 -13.4742,3.35868 -3.21047,0.13692 -6.36631,-0.71124 -9.25874,-2.03141 -1.73395,-0.52368 -2.35639,1.5012 -2.61933,2.78513 -3.75262,14.64087 -6.48723,29.55795 -8.12703,44.58453 -1.10672,11.79667 -1.08673,23.69565 -0.30911,35.51235 1.09993,12.97689 3.89626,25.94168 9.65065,37.69455 3.27821,7.38941 7.44649,14.34926 12.3526,20.77165 6.97121,9.3536 13.71983,19.20777 23.2628,26.17166 13.08378,10.07556 25.96154,18.78054 43.67485,22.9551 8.3264,2.37344 16.97681,3.52892 25.6027,4.07332 8.0611,0.0178 16.15778,0.0953 24.18642,-0.69792 15.76923,-1.9095 31.3125,-7.35257 43.97309,-17.10676 2.02104,-1.686 6.92383,-4.71623 7.65766,-6.38834 0.86224,-1.96471 -3.47755,0.98095 -4.22418,1.15995 -10.41362,4.68401 -21.42611,8.10593 -32.80842,9.26355 -12.10256,1.41154 -24.5583,1.50469 -36.34523,-1.87887 -14.46561,-4.07442 -28.51556,-10.69159 -39.86532,-20.72477 -1.85425,-1.84441 -4.13408,-3.51904 -5.14855,-5.98321 0.20918,-1.77785 -2.15108,-2.1561 -3.13287,-3.19466 -8.8363,-6.40651 -14.38273,-16.03023 -20.29368,-24.95352 -4.95962,-7.67443 -8.25575,-16.25829 -10.89529,-24.98021 -0.96095,-3.46519 -4.74856,-4.75072 -7.37433,-6.69109 -6.95272,-4.53648 -13.68059,-9.75802 -18.9043,-16.27976 -0.95875,-2.25822 -1.72719,-4.6015 -2.44822,-6.93051 6.60065,5.98974 12.44112,12.8728 19.66792,18.14962 6.94558,5.0437 15.77732,5.93239 24.0981,6.17461 2.75105,-0.10078 5.68181,0.56112 8.3267,-0.3656 0.91794,-0.67236 0.50448,-2.01004 1.19201,-2.86029 -0.10172,-1.26836 -1.93223,-1.0017 -2.81188,-1.35621 -7.65931,-1.35348 -15.68947,-1.28828 -22.91475,-4.44066 -8.25863,-3.02375 -15.38029,-9.64775 -18.07148,-18.10388 -2.23342,-6.80487 -2.4778,-14.04676 -2.30772,-21.14306 0.0181,-2.25666 0.79362,-4.46317 2.44654,-6.0724 3.51307,-3.9395 7.13283,-7.9332 11.59551,-10.82837 6.07814,-3.27738 12.63361,-6.4461 19.69528,-6.52948 2.28665,0.21084 4.46358,1.72819 6.77263,1.34252 1.18212,-0.89234 0.39657,-2.7495 0.68214,-4.00534 -0.0117,-3.9879 0.17333,-8.04035 -0.0793,-11.98651 -1.05551,-0.50844 -2.55784,0.31074 -3.77263,0.0899 -6.17144,0.3261 -13.00718,-1.29233 -17.11391,-6.26792 -0.74038,-0.84808 -1.15552,-2.36881 -2.53717,-2.28614 z"
           id="path17686"
           transform="matrix(0.26458333,0,0,0.26458333,46.739885,37.275758)"
           sodipodi:nodetypes="cccccccccccccsccccccccccccccccccccccccccccc" />
        <path
           style="fill:#338000;fill-opacity:1;fill-rule:evenodd;stroke-width:0.225131;stroke-linecap:round"
           d="m 280.82884,376.58561 c -1.13466,0.54202 -0.45791,2.2172 -0.54122,3.21051 0.6238,6.07151 2.30778,12.00657 2.37799,18.1271 1.1345,7.5029 1.07534,13.53682 0.0431,21.00263 -0.43623,3.15515 -1.16095,4.78077 -0.83144,6.3381 0.56662,0.27596 1.92228,0.28723 1.50776,1.28346 -1.48853,3.55221 -4.32555,6.34723 -6.60314,9.38666 -0.87669,1.13395 -2.18786,2.26701 -2.29498,3.75831 1.05028,1.36742 2.9538,1.76413 4.18637,2.97737 3.55919,2.95564 7.16182,6.06525 11.45944,7.88922 5.06242,1.85063 10.45687,-0.42417 14.68913,-3.20888 2.5483,-1.7543 5.67138,-3.24379 7.11524,-6.12854 0.78667,-2.47811 -1.60884,-4.45122 -3.03926,-6.12365 -1.2115,-1.09392 0.51788,-0.0984 1.16247,0.19359 2.69769,1.06366 4.63418,3.4311 7.30566,4.48931 1.3896,-0.20939 0.66929,-2.09064 0.35925,-2.93827 -0.8879,-2.42415 -2.59794,-4.58329 -4.06071,-6.55131 2.05221,0.82017 4.25534,1.9004 5.08121,4.12119 0.5723,0.77158 0.88517,2.59775 2.14487,2.35287 0.97023,-1.01903 0.63451,-2.7213 0.74178,-4.03559 0.002,-0.43282 -0.20377,-1.10931 -0.28945,-1.37187 0.52085,0.64041 1.01669,2.70802 1.87958,1.49659 0.37876,-2.68879 -1.46408,-5.06548 -3.03507,-7.05576 -2.10599,-2.64142 -5.65513,-2.85403 -8.62588,-3.84433 -2.43759,-0.90018 -3.23202,-3.68638 -3.27884,-5.98503 -0.2523,-4.89942 -0.49294,-9.88887 -1.75726,-14.68246 -1.11349,-5.87257 -3.34856,-11.87093 -8.07443,-15.79938 -4.91922,-4.4271 -11.18691,-6.96288 -17.42442,-8.89625 -0.0654,-0.007 -0.13203,-0.0127 -0.19777,-0.006 z"
           id="path83283"
           transform="matrix(0.26458333,0,0,0.26458333,46.739885,37.275758)"
           sodipodi:nodetypes="cccscccccccccccccccccccccccccc" />
        <path
           style="fill:#fffd98;fill-opacity:1;fill-rule:evenodd;stroke-width:0.218364;stroke-linecap:round"
           d="m 355.23119,432.68048 c -1.08135,0.56805 -0.90983,2.21675 -1.41323,3.22346 -2.69406,9.68382 -6.04071,19.2828 -11.07528,28.0389 -4.9239,8.04895 -11.38524,15.0808 -18.49626,21.27896 -6.82563,4.95484 -14.39384,8.84991 -22.24443,11.88819 -4.67065,1.60862 -9.60749,2.19912 -14.48132,2.62156 -8.98785,0.0863 -18.26587,-0.7616 -26.54284,-4.64117 -7.07212,-3.0314 -13.22706,-8.02977 -18.21817,-13.8563 -4.0507,-4.76386 -6.61918,-10.40701 -9.6729,-15.81345 -2.32901,-3.7163 -6.86768,-4.90755 -10.47324,-6.96543 -1.26648,-0.86711 -2.67742,-1.16871 -4.18596,-0.87517 -6.58076,0.38744 -13.20731,0.72823 -19.70047,-0.54038 -0.68352,-0.22772 -1.86648,-0.14534 -1.63893,0.85844 1.45463,9.45649 5.93995,18.06895 10.24792,26.49048 0.76803,1.09071 1.39432,3.1231 3.02057,2.99845 2.56444,-1.63553 4.33342,-4.28725 6.93711,-5.90934 2.51521,-1.80408 5.55792,-3.21405 8.34132,-4.03661 -4.89713,1.99846 -9.85629,4.81479 -12.63611,9.48555 -0.63583,1.35093 -1.76729,3.05973 -0.50288,4.42375 3.92431,6.00802 8.06304,12.11174 14.00846,16.31656 1.81185,1.17723 3.64401,3.15876 5.98324,2.93813 1.88163,-0.90722 2.25333,-3.32111 3.39746,-4.90278 1.77558,-3.1058 4.10096,-5.86984 6.73264,-8.284 -2.57593,4.16057 -6.24565,7.97583 -7.11043,12.95342 -0.42568,2.3332 2.15416,3.52704 3.82882,4.45834 6.8705,3.31912 14.21038,5.72339 21.71107,7.12428 1.26968,0.12616 2.60423,0.49732 3.85064,0.24419 0.93152,-3.58498 1.91141,-7.2415 3.96382,-10.38514 0.56763,-0.93246 1.37855,-2.12013 1.92114,-2.79894 -1.8034,3.67082 -3.6368,7.61429 -3.55995,11.78799 0.006,1.33503 1.41848,1.89173 2.56958,1.65639 7.27203,0.0102 14.63691,0.18769 21.75291,-1.57057 1.73982,-0.46365 3.65259,-0.53833 5.27567,-1.26796 0.34478,-4.15856 0.0274,-8.36321 0.88694,-12.47046 0.24499,3.58697 -0.10882,7.25661 0.61251,10.79091 0.67012,1.63522 2.77281,0.66504 3.99914,0.41481 8.3795,-2.70879 16.54578,-6.46958 23.53445,-11.88368 1.1675,-0.7253 1.00393,-2.11917 0.60256,-3.23528 -0.68604,-3.56303 -1.1696,-7.23813 -0.98577,-10.84431 0.65047,3.39378 0.43135,7.28647 2.68655,10.1283 0.88071,1.07101 2.24903,0.39073 2.9906,-0.45836 6.23537,-5.29162 11.91623,-11.4834 15.30559,-19.01375 0.5094,-1.41054 1.69653,-2.76302 1.61286,-4.29751 -1.05309,-2.25685 -2.68883,-4.13388 -3.25574,-6.57782 1.19841,1.374 2.31415,3.15298 4.08084,3.8055 1.49244,-0.13598 1.50591,-2.13659 2.02124,-3.18803 2.26394,-7.69408 4.46884,-15.49168 5.22874,-23.50098 0.16872,-5.22878 0.3069,-10.49061 -0.12509,-15.7073 -0.0565,-0.41378 -0.2738,-0.96023 -0.78539,-0.90184 z"
           id="path65385"
           transform="matrix(0.26458333,0,0,0.26458333,46.739885,37.275758)" />
        <path
           style="fill:#fffd98;fill-opacity:1;fill-rule:evenodd;stroke-width:0.288986;stroke-linecap:round"
           d="m 263.92852,284.57832 c -6.7068,0.96474 -13.02746,4.08813 -18.35539,8.20879 -4.08423,3.65873 -8.17226,7.49804 -11.12565,12.15369 -0.93565,1.50694 0.68031,2.84784 2.00471,3.26811 2.12037,1.10202 4.74655,1.88976 6.80442,2.57338 -3.38903,-0.0672 -6.66333,-1.06372 -9.77146,-2.31174 -2.30801,-0.13883 -2.86163,2.80506 -3.86484,4.32717 -2.08757,4.54 -4.78396,8.94484 -5.83553,13.87111 0.0897,1.97841 2.59126,2.51882 4.03331,3.2902 5.76115,2.33728 12.0817,3.09408 18.24487,2.34819 2.12135,-0.15963 -1.30037,0.4949 -2.0059,0.61766 -5.93378,0.87181 -12.10386,0.22729 -17.71011,-2.04939 -0.98908,-0.22201 -3.30325,-1.46644 -3.52689,0.24121 1.3319,2.85348 4.26407,4.65972 5.72023,7.48838 2.8998,4.88445 3.01857,11.00669 1.72514,16.40683 -0.65757,2.89493 -3.00181,4.93724 -4.1253,7.58037 0.14812,2.01894 2.8227,1.90579 4.33079,2.04175 7.79154,0.062 15.52494,-1.22529 23.09835,-2.96346 -9.66207,2.98847 -19.7999,3.66749 -29.85796,3.8344 -2.23899,0.34235 -4.52629,1.31179 -6.21364,2.82068 -1.45191,2.67281 -0.52448,5.93957 -0.70475,8.84008 0.20553,3.36928 -0.0581,6.85326 0.43355,10.15268 4.4487,3.41357 8.60732,8.33153 14.62134,8.66994 11.09879,0.84074 22.22683,-1.20488 32.91999,-4.03809 -10.40642,4.02139 -21.52716,6.25567 -32.69419,5.82581 -2.53728,-0.53115 -1.14529,1.74234 -0.27179,2.78321 3.51009,5.05186 6.82015,10.33496 8.49435,16.31505 0.78877,1.44102 0.70391,3.75878 2.32486,4.55219 6.51159,2.0382 13.44074,1.96892 20.12911,0.95576 1.38501,-0.16467 3.23926,-0.49812 4.30969,-0.66366 -7.70329,2.60475 -16.05784,1.61594 -24.078,2.22812 -1.65801,0.75159 -1.02807,3.44114 0.3375,4.24119 3.18158,2.02227 6.71118,3.61405 9.28581,6.47289 2.70303,2.43149 4.16397,5.80352 6.35521,8.62813 1.74701,0.99975 3.61033,-0.79901 5.21428,-1.36136 7.12549,-3.27755 12.61919,-9.27647 16.49897,-15.97466 3.58932,-6.74727 3.08295,-14.69295 3.02516,-22.08876 -0.21395,-7.91542 -3.56541,-15.29388 -7.17178,-22.19188 -4.79316,-10.47752 -10.10404,-20.72303 -14.58477,-31.33999 -4.15388,-10.96974 -5.30212,-22.84647 -5.42699,-34.51671 -0.0199,-7.17476 1.07441,-14.45356 4.04717,-21.03982 1.22863,-3.24383 2.71405,-6.3364 4.16359,-9.46808 0.1364,-0.49783 -0.37607,-0.78112 -0.79746,-0.72937 z"
           id="path12854"
           transform="matrix(0.26458333,0,0,0.26458333,46.739885,37.275758)" />
        <path
           style="fill:#225500;fill-opacity:1;fill-rule:evenodd;stroke-width:0.157919;stroke-linecap:round"
           d="m 116.65403,278.46895 c -9.60018,0.11255 -18.774526,3.37427 -27.759279,6.42913 -11.233997,3.88209 -21.9609,9.17619 -31.911699,15.67315 -7.453135,4.70059 -14.509533,10.02531 -20.981696,16.00924 -6.444829,5.95631 -12.490011,12.36229 -18.011668,19.18426 -3.190732,4.27005 -6.126481,8.76637 -8.4978343,13.54515 -0.4585694,0.83904 0.5398983,1.48519 1.3034243,1.29951 5.570681,-0.35936 11.178822,-1.43484 16.668045,-0.25809 6.434291,1.2868 12.896675,3.29759 18.427504,6.98923 5.129101,3.33975 10.124231,6.9892 14.205091,11.59055 3.544746,3.70748 6.615986,7.84013 10.176051,11.52878 0.816554,0.82988 2.372819,0.79584 2.90912,-0.32577 1.176924,-2.39441 1.030781,-5.17933 1.548795,-7.74899 1.316484,-8.95863 2.59686,-18.04311 5.798758,-26.55396 2.341544,-6.45777 4.979894,-12.8042 7.926634,-19.01733 -3.812628,10.66744 -7.29728,21.49722 -9.536725,32.61551 -1.214944,7.13681 -2.316924,14.30429 -3.006245,21.51235 -0.05962,0.61444 0.01416,1.89447 0.902899,1.3896 2.285533,-2.44907 4.893203,-4.66276 7.959901,-5.98174 4.227045,-1.94343 8.729674,-3.49184 13.384586,-3.91229 4.756738,-0.2638 9.677078,0.27573 14.054928,2.35649 3.32143,1.4173 6.45785,3.24925 9.8359,4.52592 1.04065,-0.13283 0.40044,-1.39484 0.26228,-2.0144 -1.77182,-5.82349 -3.13524,-11.82168 -4.31711,-17.82441 -0.68266,-4.84889 -0.33444,-9.75934 -0.37564,-14.65471 0.039,-6.33426 0.55613,-12.62966 1.32289,-18.90314 0.4245,9.87318 0.43144,19.7717 1.27979,29.62202 0.71518,9.22626 4.05145,17.96958 7.69142,26.38885 0.53368,0.85052 0.63283,2.21947 1.66901,2.62528 0.98096,-0.24191 1.5106,-1.35012 2.2987,-1.93964 3.85313,-3.79871 7.49728,-8.11648 12.54321,-10.3452 4.42455,-2.28452 9.38195,-3.015 14.07302,-4.58232 2.3243,-0.89356 3.36916,-3.58642 3.19344,-5.93118 0.21088,-2.88899 -0.84195,-5.63049 -1.99416,-8.21847 -2.14866,-4.95498 -2.44501,-10.49805 -1.72795,-15.77203 1.19707,-7.21807 5.53638,-13.55768 10.58231,-18.67383 3.25813,-3.48962 6.94876,-6.56582 10.09085,-10.15977 0.66852,-1.19821 -0.86298,-2.149 -1.9292,-2.05193 -2.35967,-0.0286 -4.64694,0.88967 -7.01034,0.70639 -4.66822,0.13914 -9.3174,-0.33114 -13.81646,-1.67988 -4.83079,-1.24949 -9.39934,-3.60165 -12.71801,-7.38194 -4.09474,-4.37899 -7.24324,-9.57848 -9.6166,-15.0855 -0.69339,-1.72873 -2.15911,-3.12587 -4.02593,-3.46451 -4.21429,-0.96 -8.54557,-1.5277 -12.87201,-1.51038 z"
           id="path47746"
           transform="matrix(0.26458333,0,0,0.26458333,46.739885,37.275758)" />
        <path
           style="fill:#225500;fill-opacity:1;fill-rule:evenodd;stroke-width:0.137328;stroke-linecap:round"
           d="m 273.16676,281.10871 c -1.91036,1.8655 -3.49642,4.06112 -4.88956,6.33187 -2.68195,5.12969 -4.80614,10.55582 -6.43306,16.10853 -0.43602,1.80611 -0.97945,3.63894 -1.05017,5.49666 0.46215,0.72269 1.53008,0.24022 2.23231,0.31367 3.15115,-0.0757 6.24379,-0.72374 9.24462,-1.65872 4.46447,-1.31268 9.21969,-2.58975 13.8571,-1.4249 3.90641,1.08141 6.69787,4.39261 8.61925,7.80031 2.8565,5.06479 5.77539,10.15105 8.27329,15.36833 1.0202,1.98875 1.42844,4.36011 0.71144,6.53401 -0.71152,2.37918 -1.68652,4.79958 -3.61544,6.45143 -0.80438,0.68963 -2.0736,-0.54149 -2.69387,0.48967 -1.38908,2.68366 -1.53932,5.95028 -3.41375,8.39244 -0.54406,0.64382 -1.62304,1.08035 -2.27801,0.33326 -1.13022,-0.85205 -1.91675,-2.18547 -3.2071,-2.80061 -1.0598,-0.11893 -1.2512,1.26143 -1.48915,2.00238 -0.13855,0.81095 -0.63346,1.99111 -1.6677,1.6907 -2.51437,-0.54316 -4.58066,-2.25122 -6.60921,-3.74162 -2.77627,-2.09839 -5.18929,-4.77243 -8.32407,-6.37122 -2.0392,-1.0053 -4.44304,0.1847 -5.80953,1.77206 -1.06701,1.28918 -0.17381,3.00065 0.226,4.37088 1.93406,5.04374 4.47487,9.83553 7.11671,14.53844 0.61343,0.97314 1.4685,2.52165 2.86277,2.08158 1.73532,-0.74325 3.18264,-2.00452 4.95202,-2.70664 5.50751,-2.53579 11.83199,-2.43667 17.72827,-1.51759 1.28926,0.11353 2.54242,0.62472 3.84654,0.55046 0.55943,-0.46617 0.27899,-1.41214 0.45233,-2.06332 0.3517,-7.0352 3.43494,-13.70372 7.73141,-19.17717 2.80478,-3.57576 6.76698,-5.99513 10.72161,-8.10369 4.84357,-2.59997 10.45975,-2.87141 15.85293,-2.84274 1.22341,-0.0898 2.54612,0.12224 3.69226,-0.3371 -0.0744,-0.79831 -0.9485,-1.36347 -1.38303,-2.04913 -5.29071,-6.06448 -10.61317,-12.11057 -16.20537,-17.90099 -6.43692,-6.62941 -13.59922,-12.59293 -21.45201,-17.47567 -6.32307,-3.74965 -13.30657,-6.1806 -20.18871,-8.67632 -2.37491,-0.77108 -4.83074,-1.45407 -7.27993,-1.8162 z"
           id="path8690"
           transform="matrix(0.26458333,0,0,0.26458333,46.739885,37.275758)" />
        <g
           id="svgg"
           transform="matrix(-0.26458333,0,0,0.26458333,151.50303,36.91952)">
          <path
             id="path3"
             d="m 201.6,2.251 c -3.55233,1.6798771 -6.42425,4.1645584 -9.3222,6.6482808 C 186.52371,13.830891 181.40512,18.291089 176.4,25.171 c -0.57188,0.786089 -0.995,0.827199 -9,0.857 -4.62,0.0172 -14.80128,0.381905 -22,1.92 -12.31124,2.630447 -27.06429,7.570422 -35.681,12.379 -11.835728,6.604957 -27.058121,22.490979 -28.521378,22.873 -3.987591,1.041063 -5.38353,6.154977 -4.263622,7.976 0.342234,0.556489 -0.376322,2.008825 -1.456,4 -2.438322,4.496826 -5.010406,13.451494 -7.572,15.691 -0.604133,0.528171 -1.845035,1.832977 -2.647,3.038 -5.187035,7.79398 -6.083537,16.82203 -5.004906,29.59878 0.06417,0.76012 0.0532,0.35965 -4.654094,0.56322 -8.030749,0.34729 -14.641632,0.93145 -22.854,5.7 -4.595613,2.66846 -5.327105,3.25893 -6.892411,6.45659 -1.3878,2.83504 -0.498589,6.26941 2.089411,8.85741 l 1.273,1.273 -0.445,4.723 c -0.746872,7.92692 0.824767,17.04866 2.276,21.346 1.612861,4.77594 4.458,10.258 8.835,15.717 2.067,2.577 2.518,3.404 2.518,4.613 0,2.214 4.475,10.259 7.72,13.88 1.866,2.081 3.272382,4.02707 3.197265,5.156 -0.08606,1.29337 5.01842,10.28224 8.251735,14.976 3.131209,4.54554 6.696812,8.83805 10.703,12.635 7.089116,6.71886 15.616456,11.73653 23.341,17.714 5.20908,4.03093 14.04203,11.05896 15.513,12.239 2.85203,2.28796 8.474,7.748 8.474,8.23 0,0.444 -15.56895,5.3915 -22.8,9.266 -5.821558,3.11927 -11.223493,7.02166 -16.378,11.151 -4.286679,3.43411 -8.18914,7.3348 -12.022,11.269 -5.34462,5.48593 -10.512601,11.1665 -15.271,17.168 -2.174412,2.74247 -5.371761,6.75926 -6.047293,8.58329 L 46.4,336.861 l 3.53952,-0.50185 c 9.984191,-1.4156 13.255018,-2.15619 19.53948,-0.43915 5.211052,1.42376 10.422456,4.30902 13.766,8.552 4.63669,5.88399 6.645749,11.39014 7.067,21.334 0.187037,4.41511 0.231,4.633 5.106,2.215 7.436,-3.688 18.62645,-0.8001 23.745,2.843 1.08495,0.7722 0.5,1.343 -1.363,1.615 -3.916,0.57 -10.19979,3.08842 -12.4,4.164 -7.937794,3.88042 -15.554408,8.33275 -19.4,21.728 -2.285362,7.96054 -2.02,7.423 -2.33,13.801 -0.267,5.509 -0.339872,5.94198 -1.847855,6.57745 -3.647452,1.53706 -3.913586,1.78929 -6.016145,2.84555 -4.808895,2.41584 -7.136093,6.99816 -7.887093,9.88216 -1.146689,5.34233 2.675771,5.97404 3.335333,7.67588 1.033585,2.6669 1.898422,6.00203 3.84936,3.29186 1.394894,-1.93774 0.385624,5.18157 3.876985,3.36326 1.705383,-0.88817 3.263754,0.95451 6.74239,3.51106 2.393405,1.75899 8.691271,5.7039 10.027025,6.28078 5.43439,2.34697 12.26411,2.29518 21.814,-5.241 3.37814,-2.66581 4.491,-3.58 7.402,-4.568 l 1.829,-0.621 3.383,1.785 c 1.86061,0.98173 2.83723,1.13628 4.303,1.915 0.79106,0.42027 0.5149,0.29416 0.95,4.181 0.30192,2.69714 0.86873,4.02445 4.2654,3.90953 1.7555,-0.0594 1.68293,0.11511 1.26202,1.23502 -1.01747,2.70719 4.15215,3.09255 5.48756,3.0369 5.65066,-0.23549 6.88352,-0.62178 6.18921,1.60948 -0.79836,2.5656 0.73381,2.76307 2.51881,2.79607 3.135,0.057 3.6741,0.1968 3.246,1.01 -6.62764,12.5897 -11.3062,17.2525 -19.534,23.069 -5.08454,3.59442 -11.28788,5.84831 -17.466,6.625 -9.75095,1.22585 -19.96178,-0.23551 -29.296975,-3.30762 C 85.183042,490.75709 78.851467,486.67493 73.174,482.11 67.08275,477.21237 61.496987,471.42689 57.366355,464.79153 51.918187,456.03971 48.722362,445.96282 46.073,436 44.616972,430.52467 43.6,420.046 43.6,419.184 c 0,-6.876 -10.788731,-0.0459 -16.195,8.985 -5.427106,9.06573 -6.635683,13.04285 -8.652,20.031 -2.053802,7.11806 -2.717679,11.0628 -3.411,21.962 -0.387449,6.0908 -0.216668,5.96462 -3.84,10.027 -6.9835067,7.82971 -9.6039103,10.75069 -8.21,14.492 2.6873452,7.21293 11.093415,12.84409 20.562,15.152 1.680607,0.40964 9.42,13.538 9.42,13.538 l -0.625,3.415 c -2.60476,14.23241 -2.17572,23.89359 3.816,25.455 5.567124,1.45076 14.045082,1.13938 21.935,-0.581 6.749082,-1.47162 7.095188,-1.48137 9.537,-0.241 3.956188,2.00963 4.176244,2.472 4.463,4.062 1.012383,5.61344 8.055187,22.35745 10.841,22.119 6.52721,-0.55869 11.640761,-1.66664 19.6944,-7.67112 5.2252,-3.89571 7.21054,-4.91896 8.4426,-5.88388 2.45294,-1.92108 5.97362,-2.44751 7.783,-0.68 5.02956,4.91318 9.44277,9.09361 14.959,14.134 3.81756,3.48826 7.64597,3.87696 11.161,1.002 7.34197,-6.00504 13.50642,-13.93582 16.876,-21.711 1.37242,-3.16682 3.23267,-3.80994 6.08738,-5.27077 3.28836,-1.68273 5.39346,-2.6827 7.49993,-1.87546 7.21903,2.76646 18.94414,2.80656 25.65569,1.12923 4.16608,-1.04118 5.94689,-1.67051 7.82016,-6.7637 1.28104,-3.48297 1.63739,-9.48075 0.0258,-16.7353 -0.62245,-2.802 -1.01978,-3.8208 1.648,-6.728 1.39922,-1.5248 3.508,-4.065 4.686,-5.644 2.362,-3.166 1.91605,-2.97541 8.22,-3.513 10.35905,-0.88341 20.80802,-6.37758 22.66029,-14.46166 1.32126,-5.76652 -0.4095,-9.23721 -4.55929,-18.52734 -3.91814,-8.77155 -2.64295,-8.84307 -1.101,-15.605 1.2752,-5.59214 4.74979,-6.15102 11.187,-11.395 8.09178,-6.59186 10.32069,-17.70719 6.989,-25.2 -3.21884,-7.23901 -8.51486,-11.68396 -13.847,-16.673 -1.85354,-1.73427 -2.806,-4.5652 -2.886,-7.127 -0.0866,-2.77355 -0.10275,-5.00477 2.637,-7.896 4.58525,-4.83877 6.871,-7.81538 6.151,-12.638 -0.4792,-3.20967 -1.46131,-4.82264 0.336,-3.766 4.52852,2.66233 11.90481,9.18067 13.645,16.324 0.55005,2.25791 2.75707,1.56105 4.77,-1.421 3.72807,-5.52295 10.54542,-12.05743 17.76834,-14.66762 5.14861,-1.86058 11.39728,-2.2266 16.42336,-0.0567 6.49993,2.8062 12.07677,6.54658 14.5123,15.50832 0.81359,2.99367 3.20958,2.57521 5.337,-0.787 4.4425,-7.02099 7.66921,-11.28932 12.179,-16.386 4.01628,-4.53895 8.20293,-9.06058 13.164,-12.542 4.15698,-2.91715 8.67502,-5.70411 13.634,-6.799 8.59641,-1.89799 17.78059,-2.59239 26.4,0.739 3.33921,1.2906 6.4,1.308 6.4,-0.223 0,-1.197 -4.68839,-9.27953 -7.696,-13.495 -8.21535,-11.51465 -17.32471,-22.61065 -28.017,-31.871 -11.27641,-9.76624 -24.05882,-17.94724 -37.487,-24.445 -11.01306,-5.32911 -25.07115,-10.39907 -34.8,-11.668 -9.72885,-1.26893 -18.42727,0.51247 -22.118,1.42 -4.75642,1.16958 -4.74176,1.53124 -8.82409,10.58823 -1.93785,4.29928 -7.34172,14.06281 -22.42692,16.84189 -3.19734,0.58903 -6.12827,0.59447 -5.7702,-1.70217 0.73218,-4.69617 0.82119,-5.39333 -2.83283,-9.73799 -1.21609,-1.44594 -0.19974,-1.77903 2.09904,-2.61796 10.17699,-3.71407 13.63701,-5.4353 20.203,-8.698 5.92629,-2.94482 11.76192,-6.12404 17.27,-9.792 5.49656,-3.66028 10.85216,-7.60753 15.66079,-12.13378 6.76824,-6.37078 13.27177,-13.20458 18.37967,-20.97022 4.59366,-6.98383 8.18855,-14.69625 10.77122,-22.64644 3.45835,-10.64578 5.39658,-21.84403 6.15205,-33.01194 0.89909,-13.29092 0.11672,-21.72254 -1.96373,-39.91562 -0.29222,-2.55535 0.38811,-2.77837 4.40079,-8.60952 2.64254,-3.84009 2.78499,-11.62593 0.35221,-16.59548 -2.43969,-4.98367 -10.59766,-8.50428 -13.361,-9.929 -1.97788,-1.01975 -1.12714,-0.712 2.406,-8.2 5.05169,-10.70635 5.9777,-20.324363 4.609,-24.774 -3.04748,-9.907338 -10.44,-11.589969 -28.524,-12.384 -2.254,-0.09897 -5.15679,-0.145836 -5.13794,-1.214065 0.15885,-9.004797 0.57534,-12.269823 -0.53706,-18.254935 -1.38986,-7.477916 -3.27117,-19.435197 -7.569,-21.526 -4.09584,-1.992538 -15.05172,0.615487 -26.439,5.833 -5.53319,2.53524 -10.38194,5.693728 -11.2,3.504 -0.46672,-1.249292 -3.85119,-9.402658 -6.513,-14.328 C 222.20756,9.167437 216.9417,2.6996968 208.524,1.996 203.59473,1.5839263 203.22197,1.6186405 201.6,2.251 m -29.346,28.27 c 0.142,0.141 -0.28091,0.922614 -0.898,1.767 -3.18853,4.362991 -3.89337,5.922687 -6.841,10.361 l -1.485,2.236 -1.815,-0.258 c -10.91072,-1.550946 -28.20764,-3.140585 -31.369,-2.062 -5.62136,1.917883 -8.47556,10.446317 -7.522,22.276 0.48694,6.040846 0.24806,9.832283 3.876,17.796 1.24031,2.722612 3.54,5.363 4.036,5.363 0.572,0 1.87618,-1.249839 5.364,-5.143 2.75918,-3.079839 7.94553,-7.875795 12.437,-11.176 7.67121,-5.636589 15.88454,-10.656095 24.563,-14.568 7.27928,-3.281213 14.94627,-5.905092 22.8,-7.345 8.95229,-1.641319 18.22833,-2.442568 27.269,-1.392 8.18147,0.950726 16.14896,3.667375 23.731,6.885 6.81651,2.892755 13.5653,6.328897 19.275,11.044 7.17894,5.928412 12.70453,13.669678 18.218,21.172 2.86402,3.897141 5.33199,8.082326 7.67,12.316 5.0889,9.21498 10.27205,18.48795 13.797,28.407 2.66007,7.48532 4.07903,15.37545 5.451,23.2 0.39414,2.24781 0.70026,4.51986 0.795,6.8 0.54276,13.06266 0.55413,26.25922 -1.307,39.2 -1.0042,6.9824 -2.80425,13.88842 -5.28392,20.49248 -2.50026,6.65891 -5.72993,13.08753 -9.58824,19.06297 -3.2832,5.08477 -7.21613,9.76365 -11.42684,14.11155 -5.39439,5.57015 -11.43843,10.50344 -17.6,15.211 -3.54042,2.70495 -7.23128,5.23426 -11.091,7.46 -6.34924,3.66134 -13.0576,6.67817 -19.76,9.644 -3.8973,1.72456 -7.82231,3.42106 -11.87738,4.73235 -6.66961,2.15675 -13.5288,3.71285 -20.39403,5.12841 -2.7735,0.57188 -2.97661,0.73409 -8.38659,1.35624 -5.01602,0.57685 -6.01605,0.83905 -5.426,1.423 0.57095,0.56505 8.18606,0.8953 10.535,0.457 4.29106,-0.8007 5.80895,0.51802 8.201,7.124 1.92495,5.31602 9.32422,14.09138 13.026,16.106 3.09014,1.68175 10.36309,9.78362 12.457,16.291 1.73184,5.38214 1.20216,11.67673 -0.512,16.954 -2.52084,7.76073 -14.84721,9.73544 -26.495,4.243 -2.14521,-1.01156 -3.41078,-0.7249 -4.185,0.947 -1.95978,4.2321 -8.633,8.256 -13.691,8.256 -2.286,0 -2.4321,-0.13103 -1.926,-1.73 0.5669,-1.79103 1.43,-7.071 1.154,-7.063 -0.685,0.019 -3.24357,3.34859 -4.668,5.766 -1.58903,2.69675 -1.21585,2.81977 -3.776,1.11 -3.68985,-2.46423 -3.97789,-3.08098 -3.149,-6.752 0.27411,-1.21398 0.30889,-2.66098 0.096,-3.895 l -0.339,-1.965 c 0,0 -0.94548,0.43381 -1.4112,3.85826 -0.3233,2.37722 -0.46907,5.19318 -2.54326,2.13263 -0.83117,-1.22644 -1.5546,-1.89038 -1.66339,-4.11433 -0.32316,-6.60688 -0.38313,-12.16762 2.84785,-15.76456 2.91266,-3.24257 4.22756,-5.15154 18.377,-5.571 6.86206,-0.20342 11.316,-1.863 14.709,-6.053 1.88,-2.322 1.88995,-3.00302 -0.156,-2.92 -1.64974,0.0669 -6.31075,3.64218 -13.25,4.536 -2.67213,0.34419 -9.3968,-0.2992 -15.70764,2.35158 -2.73463,1.14864 -2.60657,-0.43028 -2.99536,-2.98758 -0.22729,-1.49501 -3.13313,-8.79874 -5.574,-12.739 -4.16482,-6.72321 -9.40844,-12.83846 -15.226,-18.196 -1.77985,-1.63911 -5.659,-4.479 -5.931,-4.185 -0.148,0.16 0.0519,0.28969 0.331,0.5 7.28338,5.48833 13.6,13.437 13.6,14.831 0,0.708 -3.96995,2.73718 -7,3.578 -0.87995,0.24418 -2.04693,0.56624 -2.593,0.715 -1.80693,0.49224 0.3221,0.86476 2.993,0.524 3.3331,-0.42524 4.54096,-0.76007 6.484,-1.792 2.12596,-1.12907 2.2135,-1.03576 5.522,5.825 4.8485,10.05424 5.54791,12.01614 4.152,12.9 -5.91293,3.74396 -13.88187,4.74706 -20.05902,4.03791 -3.08449,-0.3541 -5.76168,-0.33548 -3.00298,0.47209 11.31675,3.31281 18.86951,-0.33569 23.889,-1.94 0.90372,-0.28884 0.91957,1.26804 0.046,1.993 -6.33154,5.25441 -7.446,10.923 -7.584,15.709 -0.15,5.226 1.07041,9.3183 4.049,12.642 3.90802,4.36083 -5.29496,3.37623 -8.096,3.223 -6.86896,-0.37577 -12.16741,-1.45119 -17.35058,-2.72291 -3.98924,-0.97878 -3.35988,0.0323 -1.65993,0.49 10.52151,2.83303 15.95497,2.85183 23.99051,3.87591 3.12178,0.39785 6.6618,-0.47178 9.4,0.88 1.97941,0.97718 2.97418,1.16351 3.789,2.383 0.87498,1.30954 -0.0285,9.56086 -0.0641,13.834 l -0.0344,4.1354 -2.03497,1.71111 c -6.80536,5.72226 -7.82203,6.3866 -11.63553,6.85549 -9.82808,1.20841 -24.66576,-1.22887 -35.81389,-4.61842 -1.28087,-0.38945 -1.41794,0.22914 3.07913,1.84771 9.59733,3.45422 17.08156,4.60167 25.84527,5.44529 2.41895,0.23285 7.28949,-0.24558 7.28949,-0.11458 0,0.132 -2.33611,3.32336 -3.312,5.1 -2.95417,5.37817 -4.5549,6.50121 -7.651,16.743 -0.41242,1.36425 -0.55228,1.0247 -1.74,1.331 -5.62149,1.4497 -8.62143,1.46339 -12.96847,1.39144 -4.57531,-0.0757 -7.48342,-0.7377 -13.59353,-1.91544 -0.95328,-0.18375 4.59886,1.95967 7.03085,2.46009 4.67358,0.96166 8.35215,1.12673 14.28015,0.99091 6.817,-0.15618 6.71668,-0.19806 6.191,2.603 -0.23232,1.23794 -4.82573,2.68029 -6.9004,4.47131 -3.10374,2.6794 -6.98714,6.76859 -8.12433,9.23616 -1.51534,3.28809 -2.49056,3.0747 -3.51727,2.57053 -8.47181,-4.16007 -10.52538,-5.7974 -14.061,-10.021 -4.26942,-5.10019 -5.40052,-7.14921 -6.843,-11.006 -0.53191,-1.42219 -0.32026,0.30604 -0.149,1.377 0.20774,1.29904 0.138,1.629 -0.342,1.629 -2.29,0 -1.7817,2.35275 1.305,6.038 1.3173,1.57275 3.29969,4.35229 4.401,5.562 2.01769,2.21629 2.29812,3.06325 1.194,3.613 -0.32988,0.16425 -1.3918,0.48326 -2.16,1.043 -1.04822,0.76377 -0.78366,0.49812 -2.305,1.987 -1.78988,1.75169 -8.27709,6.3667 -10.419,6.981 -4.18309,1.1997 -8.248836,0.40874 -13.009,-2.531 -9.775836,-6.03726 -10.254071,-7.26107 -4.907,-12.569 1.209929,-1.20107 1.84,-2.014 1.4,-1.807 -0.44,0.207 -2.42,1.125 -4.4,2.04 -1.98,0.915 -2.698472,1.88503 -4.165173,2.96874 -2.299746,1.69924 -2.730672,1.2519 -2.035827,-0.79674 1.3141,-3.87442 3.377962,-5.80403 4.038,-6.629 1.448962,-1.81103 1.072046,-1.86891 -2.013,-0.312 -1.525954,0.77009 -2.577265,1.61386 -2.989,2.4 -0.349265,0.66686 -0.925637,1.76719 -1.281,2.446 -0.969637,1.85219 -1.180984,1.78169 -1.506,-2.475 -0.10706,-1.40215 1.716419,-3.85374 1.716419,-3.85374 0,0 -1.220791,-0.15196 -2.616419,2.95357 -0.924526,2.05724 -1.199,-0.38683 0.099,-2.86183 1.856,-3.539 4.367042,-5.57872 7.432,-6.039 5.778042,-0.86772 6.998675,-2.733 7.047,-10.758 0.03268,-5.426 1.072089,-8.9611 1.902,-12.903 2.020556,-9.59723 6.998825,-14.09677 12.322,-17.297 3.65272,-2.19597 4.64147,-2.44979 12.273,-5.354 1.03371,-0.39338 0.6229,3.301 -0.297,7.954 -1.66976,8.44596 -2.22371,16.85712 -0.379,10.211 1.26048,-4.54124 1.49385,-5.28435 3.29912,-8.4866 2.12233,-3.76467 6.55371,-13.47015 9.67742,-20.27691 2.96664,-6.46449 6.48196,-12.73738 8.607,-19.52522 1.75727,-5.61309 2.67109,-11.48106 3.36038,-17.32227 0.63343,-5.36782 1.11687,-10.81087 0.70208,-16.2 -0.44343,-5.76133 -1.5908,-11.50954 -3.392,-17 -1.61109,-4.91097 -3.60899,-9.34766 -6.563,-14.048 -2.79975,-4.45489 -13.05078,-14.58335 -20.63273,-20.67574 C 100.85989,256.17043 93.813025,250.64181 85.2,244.149 82.482116,242.10016 76.306,236.8 78.111,236.8 c 3.096,0 3.019511,-2.32739 -0.159,-4.875 -4.766489,-3.82039 -6.363615,-5.88508 -6.994,-9.037 -0.795615,-3.97808 -3.265844,-3.39599 -3.444,0.811 -0.06284,1.48401 -0.165997,2.69922 -0.229,2.7 -1.152997,0.0142 -5.929049,-6.76198 -8.473,-12.023 -3.422049,-7.07698 -0.05396,-14.33708 5.39,-11.618 2.060039,1.02892 8.273051,1.76142 13.398,1.578 l 3.8,-0.136 0.116,2.612 c 0.213482,4.80702 -1.611038,7.56115 -4.523,6.828 -3.296038,-0.82985 -3.356468,1.49752 -0.114,4.432 5.790532,5.24052 13.454744,2.71199 21.367,-3.654 4.46563,-3.59293 7.14816,-6.98258 8.154,-13.961 0.38547,-2.67436 0.604,-3.918 2.096,-4.216 2.044,-0.409 2.643,-0.287 5.771,1.177 3.209,1.503 3.66,1.54 2.965,0.243 -0.237,-0.445 -0.432,-1.318 -0.432,-1.94 0,-3.042 -11.01674,-4.66448 -15.508,-3.096 -8.462692,2.95542 -9.682956,3.76011 -15.292,5.492 -7.197706,2.22242 -16.237515,1.47748 -23.743941,-1.05612 C 54.022811,194.28196 46.121133,189.09908 40.838,182.2 c -4.548769,-5.9401 -7.131487,-15.33794 -7.545,-21.139 -0.183296,-2.57141 -0.481,-11.137 0.468,-13.861 1.032,-2.961 0.89,-3.415 -1.561,-4.983 -3.301,-2.112 -2.812,-5.524 1.074,-7.487 2.937,-1.483 10.198535,-4.61425 15.126,-5.318 10.221535,-1.45985 18.999381,-1.13248 22.992969,-1.92413 2.865246,-0.56798 8.400658,-6.46599 10.419031,-11.12987 2.403365,-5.55348 2.823456,-12.29534 1.169,-18.116 -1.004347,-3.533467 -3.569427,-7.761424 -6.388,-8.98 -1.446351,-0.625313 -2.031964,-1.323384 -1.514,-2.536 3.011174,-7.049512 4.136762,-9.314766 5.963,-12.76 1.581367,-2.98328 3.967135,-4.947722 10.326,-8.038 3.662135,-1.779722 4.418218,-1.734676 3.49852,-2.74786 C 94.388285,62.653293 93.922172,62.042299 92.93042,62.0169 88.549593,61.904704 91.521768,60.199762 98.6,53.971 105.7459,47.682687 110.99068,43.890299 125,38.06 c 6.94831,-2.891698 13.17608,-4.442575 17.4,-5.257 8.79908,-1.696575 28.903,-3.233 29.854,-2.282 M 74.64,93.211 c 1.475,0.523 3.657027,3.800836 4.013,6.03 L 78.92,100.913 77.686,100 c -0.845962,-0.625902 -2.033014,-1.097808 -3.33925,-0.813104 -1.284822,0.280037 -1.586625,0.331069 -1.05975,2.224104 0.608125,2.18497 1.060028,5.34044 -0.0075,7.65984 -0.790054,1.71654 -2.590332,2.89168 -4.3025,3.69116 -0.482829,0.22545 -1.577,0.262 -1.577,0.262 0,0 -0.03189,2.99846 0.056,4.494 0.09969,1.69642 -0.139558,3.90877 0.534,5.07 0.679007,1.17062 0.022,1.412 -3.214,1.412 H 61.6 c 0,0 -0.113544,-1.53428 -0.069,-2.3 0.336312,-5.78123 0.380684,-11.81068 2.531,-17.18765 1.660824,-4.15297 3.89588,-8.672449 7.738,-10.96235 0.818965,-0.488102 1.347,-0.868 2.84,-0.339 m 133.942,6.171 c -1.111,1.111 -1.61884,2.44266 0.0861,3.818 6.29107,5.07475 6.13599,9.26266 9.08287,12.6 l 1.766,2 0.725,-1.52 c 1.30201,-3.23411 -1.38669,-9.78258 -3.334,-13.08 -2.61182,-4.422658 -6.138,-6.006 -8.326,-3.818 m -35.954,30.035 c -3.29,0.623 -7.78774,2.32947 -10.977,4.714 -4.84634,3.62348 -9.1705,8.42616 -11.589,13.973 -1.94764,4.46693 -2.7291,10.29802 -1.894,14.496 l 0.557,2.8 0.037,-3.269 c 0.0421,-3.72001 0.60278,-6.29497 1.689,-9.227 1.04925,-2.83225 2.61542,-5.52136 4.5692,-7.82468 3.12787,-3.68747 5.39487,-6.18514 11.1658,-9.26032 9.578,-5.10386 22.52622,-2.68415 27.382,4.136 1.44022,2.02285 0.97016,2.71982 -0.772,1.145 -2.76584,-2.50018 -7.70234,-3.5819 -13.16626,-2.39555 -1.70708,0.37065 -1.69358,0.81747 -0.79274,2.66955 3.01316,6.19492 -5.041,14.436 -9.799,10.026 -1.41,-1.306 -1.28314,-1.40604 -2.221,1.743 -4.21214,14.14296 7.99294,24.08361 22.083,19.896 1.82066,-0.54111 2.66272,-0.85321 3.89941,-2.10586 0.61896,-0.62695 -0.10503,0.87322 -2.15041,2.86986 -3.45263,3.37036 -7.07172,5.31561 -11.16562,6.81811 -3.40386,1.24924 -7.1321,1.96795 -10.7467,1.68241 -2.93241,-0.23165 -8.31182,-3.02384 -6.73668,-0.70352 2.82491,4.16135 17.06014,2.11629 23.4181,-1.2885 6.0745,-3.25301 11.64101,-7.88258 14.7729,-14.1465 3.98899,-7.97817 3.09124,-15.60308 1.751,-19.884 -3.78476,-12.08908 -16.347,-19.316 -29.314,-16.864 m -96.659834,38.00712 c -1.809,1.719 -2.9768,3.91525 -2.205,3.816 1.021402,-0.13134 1.602846,-0.29601 3.116834,-0.73012 1.930278,-0.55347 3.427,-0.623 5.132,0.748 2.741,2.203 7.587,1.993 8.176,-0.354 0.782,-3.116 -5.111338,-5.46204 -8.388,-5.19 -4.327365,0.35927 -4.839435,0.74753 -5.831834,1.71012 M 51.2,197.471 c 1.43,0.815 2.014096,1.23531 4.1,2.275 1.281575,0.63879 1.378,0.62 -0.162,3.51 l -1.262,2.367 -0.92,-0.865 c -2.699,-2.535 -7.392,-10.939 -5.256,-9.412 0.495,0.354 2.07,1.31 3.5,2.125 m 49.187,0.829 c -0.06,1.375 -2.410064,10.94315 -7.579078,11.46512 C 91.272462,209.92017 90.8,208.84 90.8,205.187 c 0,-3.092 -0.426045,-3.86685 5.2,-5.581 4.25029,-1.29498 4.407,-1.757 4.387,-1.306 m 185.831,82.488 c 6.349,0.935 21.99281,5.6963 32.262,10.412 11.98255,5.50249 23.34344,12.53536 33.748,20.635 8.1902,6.37583 15.5503,13.85339 22.264,21.769 3.72722,4.39448 7.5491,9.92204 9.906,14.167 2.75296,4.9583 3.48339,3.92328 -7.713,2.963 -4.50532,-0.38641 -8.49238,0.4708 -10.848,1.052 -9.57877,2.36336 -13.55094,5.03929 -19.57604,8.93021 -4.23066,2.73209 -7.8228,6.37432 -11.37027,9.94899 -3.0751,3.09867 -6.06624,7.03048 -8.54869,9.9218 -2.21789,2.58318 -3.632,1.612 -4.126,-2.776 -0.269,-2.385 -1.54691,-12.48409 -2.924,-18.611 -1.117,-4.96974 -2.5997,-9.86313 -4.316,-14.659 -1.94658,-5.43936 -4.62985,-11.58478 -6.76521,-15.95665 -1.42718,-2.92194 -2.69779,-5.43035 -2.82179,-5.30635 -0.124,0.124 0.18013,0.9903 0.559,1.974 1.12238,2.9141 3.20824,8.87041 4.688,13.348 0.63514,1.92187 1.23909,3.8546 1.798,5.8 1.31285,4.56963 2.70286,9.12922 3.65199,13.788 1.6894,8.29241 3.84601,24.713 3.61901,25.129 -0.096,0.175 -0.866,-0.469 -1.713,-1.431 -4.742,-5.388 -13.00244,-7.78246 -20.30845,-8.60919 -4.86356,-0.55035 -8.9582,0.0565 -14.45799,2.56525 -2.5045,1.14242 -3.82821,1.80132 -6.87156,3.32494 -2.67301,1.33821 -3.0496,1.60216 -2.309,-0.237 0.2504,-0.62184 1.79964,-6.39008 2.149,-7.93 2.24464,-9.89408 2.53929,-16.35339 2.64623,-24.6 0.10581,-8.15955 -0.91331,-14.39604 -1.98623,-24.4 -0.16494,-1.53787 -0.26086,16.35109 -0.92362,24.49495 -0.59429,7.30252 -0.94706,14.7039 -2.73416,21.80926 -1.44525,5.74619 -4.98256,13.86809 -6.39622,16.58479 -0.56916,1.09378 -0.52528,0.82226 -4.804,-3.751 -7.32828,-7.83274 -12.49529,-9.53873 -23.35237,-12.07631 -4.98569,-1.16528 -4.81626,-7.77158 -2.51263,-12.69569 4.02326,-8.5999 2.91211,-16.75642 0.12019,-24.39327 -3.21771,-8.80153 -12.48923,-15.45776 -18.23816,-21.39519 -1.31093,-1.35392 0.51992,-2.52635 3.57597,-1.70754 6.22995,1.66919 20.59128,0.12174 28.211,-5.581 3.50528,-2.62341 9.695,-10.037 12.701,-17.689 1.309,-3.332 2.07399,-3.7341 9.099,-4.787 4.99799,-0.7491 9.641,-0.757 14.618,-0.025 m -161.8294,3.71448 c 1.53094,2.25092 2.19513,2.29421 4.3774,6.96852 4.10558,8.79395 5.69374,15.22765 5.958,17.183 l 0.25869,1.91411 -2.18814,-0.13513 C 128.72085,310.18142 128.85,310.347 122.2,308.353 c -11.197,-3.358 -16.87384,-1.05709 -21.503,7.38 -6.669716,12.1562 -9.723006,16.86223 -9.073,20.149 0.702369,3.55155 2.026967,5.97645 3.303366,7.46729 1.811346,2.11566 2.862317,-0.24118 3.516741,1.20172 1.040089,2.29322 1.328758,4.80723 2.665673,7.44877 0.54055,1.06805 2.18503,2.56145 3.55488,1.04611 3.31744,-3.66979 3.30007,-3.57535 4.25258,0.0708 0.63815,2.44279 4.70588,0.5628 10.56576,-4.51666 3.93934,-3.4147 5.994,-4.99593 7.538,-4.998 1.445,-0.002 4.38367,1.27878 4.575,3.133 0.20167,1.95439 -2.67623,7.94001 -5.353,13.065 -3.42245,6.55268 -3.90228,7.48241 -6.125,5.962 -3.11328,-2.12959 -6.01066,-3.23243 -8.608,-3.759 -4.37307,-0.88658 -9.69408,-0.73839 -16.21,0.624 -0.835083,0.17461 -0.9,0.049 -0.9,-1.738 0,-7.738 -5.552728,-18.87586 -11.99964,-23.52889 C 74.247121,331.47558 69.647,330.33003 60.3,330.42403 c -2.145,0.022 -3.9,-0.079 -3.9,-0.224 0,-0.533 8.408743,-9.74058 12.911,-14.8 2.925646,-3.2877 10.412515,-11.3437 20.489,-18.601 7.18672,-5.17603 11.16197,-6.98904 22.6,-11.24208 4.23236,-1.57373 4.56157,-1.69408 10.12968,-2.92928 0.177,-0.023 0.73096,0.6055 1.85892,1.87481 m -4.6256,27.48955 c 1.299,0.212 2.7391,0.72989 3.2,1.15 0.8951,0.81589 1.267,0.907 8.037,1.968 l 4.4,0.69 0.125,1.734 c 0.068,0.954 -0.085,3.204 -0.34,5 -0.255,1.796 -0.671,6.356 -0.925,10.134 -0.54,8.056 -0.361,7.742 -3.778,6.622 -1.475,-0.483 -3.222,-0.926 -3.882,-0.985 -1.031,-0.09 -1.228,-0.297 -1.4,-1.464 -0.527,-3.58 -3.646,-3.394 -4.193,0.25 -0.703,4.689 -6.23133,12.57364 -8.92863,12.26298 -1.27684,-0.14707 -1.49276,-1.39011 -1.69414,-4.51362 -0.34094,-5.28812 -0.87269,-4.78797 -3.82725,0.70997 -3.75161,6.98112 -6.944479,0.14063 -5.22198,-9.65033 0.26775,-1.52194 0.80275,-2.73694 -0.126,-2.7 -0.62351,0.0248 -1.783839,1.74902 -1.750436,2.95356 0.03694,1.332 -0.626956,2.45409 -1.246564,3.03544 l -0.988,0.927 c 0,0 -0.830292,-1.94399 -1.514692,-4.27937 -0.371652,-1.26818 0.195968,-2.83415 2.090692,-6.23663 4.11966,-7.39792 7.28648,-16.03277 11.145,-17.385 3.26718,-1.14499 7.431,-0.778 10.818,-0.223 m 87.257,50.373 c 0.533,0.512 5.78029,2.55994 8.873,2.831 4.08846,0.35833 8.325,0.315 12.202,-1.645 1.725,-0.872 1.90364,-0.0878 3.585,6.849 3.34208,13.78839 6.01128,27.17285 7.106,41 1.08926,13.75822 1.40952,27.74041 -0.563,41.4 -1.44966,10.0388 -4.10179,20.02674 -8.211,29.3 -4.76877,10.7617 -11.41394,20.7251 -18.788,29.9 -6.54692,8.14577 -13.85485,15.89518 -22.337,22 -11.07136,7.96834 -23.27956,15.1183 -36.487,18.529 -20.04902,5.17748 -41.68872,5.80304 -62.081,2.208 -9.74544,-1.71806 -18.936318,-6.21126 -27.519,-11.137 -4.461485,-2.56052 -8.479578,-5.89437 -12.215,-9.431 -7.497696,-7.09868 -15.42169,-14.31569 -20.241,-23.447 -5.734968,-10.86624 -8.573817,-23.37407 -9.444,-35.63 -0.705809,-9.94083 0.412148,-20.21659 3.5,-29.692 2.599765,-7.97767 6.520317,-15.79094 12.348,-21.935 1.579387,-1.66513 3.060371,-2.35289 2.701,-0.744 -0.696877,3.11988 -1.868225,8.84963 -2.239,12.82 -1.030936,11.03958 0.714405,22.14155 3.215,32.859 1.582665,6.78324 4.016729,13.44986 7.378948,19.55007 2.320099,4.20945 5.431396,7.97299 8.687,11.509 4.312576,4.68402 8.897045,9.2699 14.245052,12.72493 8.169171,5.27761 17.199645,9.60669 26.664,11.846 13.31392,3.15013 27.48774,4.05676 41,1.9114 9.64364,-1.53114 16.62483,-4.97153 27.4,-10.3604 3.85267,-1.92679 8.97864,-6.02594 12.60195,-9.97106 6.97743,-7.59713 12.3701,-16.62884 17.07205,-25.80994 2.63231,-5.13989 5.866,-14.99 6.139,-16.2 0.972,-4.309 2.88835,-4.58136 8.84982,-8.52294 6.95636,-4.59938 12.10625,-9.23299 14.32818,-11.54606 1.97107,-2.05193 3.65201,-3.91418 3.927,-4.731 1.89347,-5.62432 2.512,-7.36 2.667,-7.8 0.155,-0.44 -0.588,0.108 -1.652,1.219 -1.063,1.11 -13.69779,13.62882 -15.688,15.237 -7.43549,6.0082 -12.35305,7.58456 -22.245,8.42767 -7.37812,0.62885 -13.85292,0.91934 -13.729,-0.60067 0.21808,-2.67499 -1.52014,-2.8502 -4.871,-0.492 -5.87814,4.1368 -11.753,6.809 -14.971,6.809 -1.622,0 -2.67124,0.0807 -1.46378,-1.83936 1.48754,-2.36547 1.74605,-2.81822 1.69403,-3.89877 -0.053,-1.10144 -0.77758,-0.41896 -4.80325,1.23513 -2.194,0.986 -8.704,1.576 -9.434,0.855 -0.139,-0.137 1.02,-1.476 2.575,-2.977 3.678,-3.551 4.567,-6.156 1.35,-3.957 -4.822,3.295 -8.265,4.04 -8.476,1.834 -0.202,-2.11 1.00647,-5.22643 2.85303,-8.44911 3.59913,-6.28136 9.73997,-9.70189 12.22397,-10.71189 3.458,-1.406 3.629,-1.69 4.04,-6.717 0.839,-10.263 4.33087,-17.46838 10.012,-23.774 6.26309,-6.95155 22.344,-18.616 22.064,-18.896 -0.28,-0.28 -1.593,-0.027 -4.137,0.796 -4.463,1.444 -4.36583,1.76367 -4.21369,-4.05765 0.0637,-2.43805 0.0114,-3.45856 -0.0733,-8.35135 l -0.04,-2.309 2.1,0.256 c 11.04113,1.34597 17.79855,-4.64254 18.82735,-6.17035 1.79638,-2.66771 0.93877,-2.91532 3.69265,-2.10265 M 41.999,438.387 c 1.226752,4.59123 2.401156,8.44721 5.819,17.013 4.864671,12.19182 12.356936,21.43103 21.341,29.652 5.835867,5.34017 13.126992,9.0226 20.413,12.103 4.715963,1.99383 9.724312,3.5743 14.825,4.02 8.60354,0.75178 17.59997,0.36018 25.803,-2.341 7.24901,-2.38703 14.0362,-6.62823 19.57,-11.884 5.43975,-5.16645 8.81969,-10.58051 12.6573,-18.61024 2.20994,-4.62404 4.77679,-4.80903 12.24065,-8.74365 2.03949,-1.07514 12.59086,1.53 23.50202,-0.9907 0.85362,-0.1972 -0.50724,4.89171 -1.377,7.68059 -1.39666,4.47838 -2.9397,8.0639 -4.366,10.831 -3.70223,7.18252 -5.49313,13.25189 -7.714,10.642 -3.71713,-4.36825 -8.66123,-8.16509 -16.313,-9.935 -1.84825,-0.42751 -2.00321,-0.23446 -1,0.203 3.64045,1.58746 13.41122,4.69172 16.038,12.278 0.62712,1.81117 -0.585,2.3857 -3.587,6.905 -1.63539,2.46196 -4.07753,6.18952 -8.96754,10.16503 -7.15915,5.82028 -7.90384,4.58181 -8.81946,2.52497 -3.79268,-8.51985 -10.59752,-13.41573 -10.356,-12.942 1.72403,3.38162 5.21123,7.20088 6.627,10.05 2.85123,5.73788 2.31294,6.61549 -1.63497,8.69293 -5.73861,3.01973 -18.21227,7.12477 -23.47506,7.3991 l -1.91797,0.1 -0.55308,-2.44097 c -0.95458,-4.21297 -3.20238,-8.22106 -5.76692,-11.43603 -1.79689,-2.25262 -2.76488,-2.88208 -1.411,-0.823 3.89312,5.92092 6.25798,14.81924 3.77897,14.86117 -15.96899,0.27007 -16.64493,-0.28512 -24.45531,-1.87416 l -3.49966,-0.71201 -0.032,-4.932 c -0.02894,-4.46001 -0.606,-8.298 -1.377,-9.173 -0.16,-0.182 -0.26879,2.068 -0.241,5 0.06921,7.302 -0.19905,8.46225 -1.873,8.13 -7.173051,-1.42375 -19.757811,-7.49623 -25.65,-12.375 -1.241811,-1.02823 -0.373581,-1.45099 0.215,-5.344 1.064267,-7.03931 0.467,-9.566 0.003,-9.853 -0.195,-0.121 -0.451335,0.99305 -0.569,2.476 -0.575335,7.25105 -2.279541,10.79231 -4.409,8.843 C 58.017591,496.72786 53.577056,492.56051 49.171996,482.725 l -1.108026,-2.47397 1.095,-1.626 c 1.440324,-2.13878 2.397,-4.251 2.669,-5.893 0.201,-1.213 0.174,-1.259 -0.304,-0.518 -1.448,2.248 -4.586205,6.11332 -5.244726,4.2362 -2.785902,-7.94125 -6.53688,-22.16365 -6.36717,-31.4502 C 40.12239,433.49153 40.29413,431.219 41.999,438.387"
             stroke="none"
             fill="#970103"
             fill-rule="evenodd"
             style="fill:#280b0b"
             sodipodi:nodetypes="cassassssssssssscsscscsaaassaaaascsaascscsscsscssssssccssssssscsaaaaaassasssscssssssssssssssssssssssssssasssssaassaaassaaazssssssaaaaaassasssssasssssccsscssssssaaaaaaaaaaaaaaaaaaaasssssassssscsssscssssscssssaassssssssssssscssssassscssssasassasassassssssssssssssssssssssscssssssssssaaaaassssssssssscssssscccsssaascccssaasssssssssccscsssaacasscaaaccssccsccaascsaassssscssssasssssccsscssccsccccccsssccaaasssaascaasssaaaccassssasaassssasssssccsscscsssssssssssssssscsssscccscccscccccssssssscsssccassaaaaaaaaaaaasssaaaaaazaassssssssssssscccccscsscssssssscsaaaaassssssssssssssssscssssscscsssscssscsscss" />
        </g>
      </g>
      <text
         xml:space="preserve"
         style="font-style:normal;font-weight:normal;font-size:22.5778px;line-height:1.25;font-family:sans-serif;letter-spacing:0px;word-spacing:0px;fill:#000000;fill-opacity:1;stroke:none;stroke-width:0.264583"
         x="173.20711"
         y="139.32117"
         id="text2737"><tspan
           sodipodi:role="line"
           id="tspan2735"
           style="font-size:22.5778px;stroke-width:0.264583"
           x="173.20711"
           y="139.32117">Remember the red cells and </tspan><tspan
           sodipodi:role="line"
           style="font-size:22.5778px;stroke-width:0.264583"
           x="173.20711"
           y="167.54341"
           id="tspan2915">get to the other side by selecting </tspan><tspan
           sodipodi:role="line"
           style="font-size:22.5778px;stroke-width:0.264583"
           x="173.20711"
           y="195.76567"
           id="tspan14175">them after they vanished.</tspan></text>
    </g>
  </g>
</svg>
